<svg height="480pt" viewBox="0 0 480 480" width="480pt" xmlns="http://www.w3.org/2000/svg"><g fill="#9bc9ff"><path d="m168 64c0-17.671875 14.328125-32 32-32h80c17.671875 0 32 14.328125 32 32v40h24v-48c0-26.507812-21.492188-48-48-48h-96c-26.507812 0-48 21.492188-48 48v48h24zm0 0"/><path d="m344 104h-208c-70.691406 0-128 57.308594-128 128v240h464v-240c0-70.691406-57.308594-128-128-128zm-104 320c-61.855469 0-112-50.144531-112-112s50.144531-112 112-112 112 50.144531 112 112-50.144531 112-112 112zm0 0"/><path d="m256 248h-32v48h-48v32h48v48h32v-48h48v-32h-48zm0 0"/></g><path d="m344 96v-40c-.035156-30.914062-25.085938-55.9648438-56-56h-96c-30.914062.0351562-55.964844 25.085938-56 56v40c-75.074219.082031-135.9179688 60.925781-136 136v240c0 4.417969 3.582031 8 8 8h464c4.417969 0 8-3.582031 8-8v-240c-.082031-75.074219-60.925781-135.917969-136-136zm-192-40c.027344-22.082031 17.917969-39.972656 40-40h96c22.082031.027344 39.972656 17.917969 40 40v40h-8v-32c-.027344-22.082031-17.917969-39.972656-40-40h-80c-22.082031.027344-39.972656 17.917969-40 40v32h-8zm24 40v-32c0-13.253906 10.746094-24 24-24h80c13.253906 0 24 10.746094 24 24v32zm288 368h-448v-232c.074219-66.242188 53.757812-119.925781 120-120h208c66.242188.074219 119.925781 53.757812 120 120zm0 0" fill="#57a4ff"/><path d="m304 288h-40v-40c0-4.417969-3.582031-8-8-8h-32c-4.417969 0-8 3.582031-8 8v40h-40c-4.417969 0-8 3.582031-8 8v32c0 4.417969 3.582031 8 8 8h40v40c0 4.417969 3.582031 8 8 8h32c4.417969 0 8-3.582031 8-8v-40h40c4.417969 0 8-3.582031 8-8v-32c0-4.417969-3.582031-8-8-8zm-8 32h-40c-4.417969 0-8 3.582031-8 8v40h-16v-40c0-4.417969-3.582031-8-8-8h-40v-16h40c4.417969 0 8-3.582031 8-8v-40h16v40c0 4.417969 3.582031 8 8 8h40zm0 0" fill="#57a4ff"/><path d="m240 192c-66.273438 0-120 53.726562-120 120s53.726562 120 120 120 120-53.726562 120-120c-.074219-66.242188-53.757812-119.925781-120-120zm0 224c-57.4375 0-104-46.5625-104-104s46.5625-104 104-104 104 46.5625 104 104c-.066406 57.410156-46.589844 103.933594-104 104zm0 0" fill="#57a4ff"/></svg>